<?xml version="1.0" standalone="no"?>
<!DOCTYPE svg PUBLIC "-//W3C//DTD SVG 1.1//EN" "http://www.w3.org/Graphics/SVG/1.1/DTD/svg11.dtd" >
<svg xmlns="http://www.w3.org/2000/svg">
<metadata>
Created by FontForge 20120731 at Fri Jun 23 09:42:45 2017
 By admin
</metadata>
<defs>
<font id="iconfont" horiz-adv-x="1024" >
  <font-face 
    font-family="iconfont"
    font-weight="500"
    font-stretch="normal"
    units-per-em="1024"
    panose-1="2 0 6 3 0 0 0 0 0 0"
    ascent="896"
    descent="-128"
    x-height="792"
    bbox="0 -128 1136 896"
    underline-thickness="0"
    underline-position="0"
    unicode-range="U+0078-E6D9"
  />
<missing-glyph 
 />
    <glyph glyph-name=".notdef" 
 />
    <glyph glyph-name=".notdef" 
 />
    <glyph glyph-name=".null" horiz-adv-x="0" 
 />
    <glyph glyph-name="nonmarkingreturn" horiz-adv-x="341" 
 />
    <glyph glyph-name="x" unicode="x" horiz-adv-x="1001" 
d="M281 543q-27 -1 -53 -1h-83q-18 0 -36.5 -6t-32.5 -18.5t-23 -32t-9 -45.5v-76h912v41q0 16 -0.5 30t-0.5 18q0 13 -5 29t-17 29.5t-31.5 22.5t-49.5 9h-133v-97h-438v97zM955 310v-52q0 -23 0.5 -52t0.5 -58t-10.5 -47.5t-26 -30t-33 -16t-31.5 -4.5q-14 -1 -29.5 -0.5
t-29.5 0.5h-32l-45 128h-439l-44 -128h-29h-34q-20 0 -45 1q-25 0 -41 9.5t-25.5 23t-13.5 29.5t-4 30v167h911zM163 247q-12 0 -21 -8.5t-9 -21.5t9 -21.5t21 -8.5q13 0 22 8.5t9 21.5t-9 21.5t-22 8.5zM316 123q-8 -26 -14 -48q-5 -19 -10.5 -37t-7.5 -25t-3 -15t1 -14.5
t9.5 -10.5t21.5 -4h37h67h81h80h64h36q23 0 34 12t2 38q-5 13 -9.5 30.5t-9.5 34.5q-5 19 -11 39h-368zM336 498v228q0 11 2.5 23t10 21.5t20.5 15.5t34 6h188q31 0 51.5 -14.5t20.5 -52.5v-227h-327z" />
    <glyph glyph-name="epack-4" unicode="&#xe6c5;" 
d="M951 388v-45h-1q-8 -112 -67.5 -206t-157.5 -148t-211 -54q-145 0 -260 85t-158 219h66q40 -112 138.5 -182.5t220.5 -70.5q100 0 185 47.5t137 129.5t58 180h-42l-46 -78h-42l-30 167l-65 -214h-44l-87 352l-75 -492v-1h-46v1l-95 434l-67 -273h-1h1h-46l-50 96h-89v59
q0 90 34.5 171t93 139.5t139.5 93t170 34.5q109 0 203.5 -49.5t155 -135.5t75.5 -191h-49q-21 140 -128 233.5t-249 93.5q-104 0 -191.5 -51.5t-138.5 -139t-51 -190.5v-22h48l7 -12l36 -69l77 320h43l92 -418l75 489h44l96 -388l68 223h44l36 -197l35 60h109z" />
    <glyph glyph-name="epack-5" unicode="&#xe6c6;" 
d="M208 703h606q60 0 102.5 -42.5t42.5 -102.5v-349q0 -60 -42 -102v-1q-43 -42 -103 -42h-606q-60 0 -102 42v1q-43 42 -43 102v349q0 60 43 102v0q42 43 102 43zM129 187l210 197l-210 196q-3 -10 -3 -22v-349q0 -12 3 -22zM385 340l-217 -203q19 -10 40 -10h606
q22 0 40 10l-217 203l-21 -19q-44 -42 -105 -42t-105 42zM683 384l210 -197q3 11 3 22v349q0 12 -3 22zM168 630l281 -263q26 -25 62 -25t62 25l281 263q-18 10 -40 10h-606q-21 0 -40 -10z" />
    <glyph glyph-name="epack-6" unicode="&#xe6c7;" 
d="M511 767q78 0 150 -30q68 -29 122 -82q53 -53 82 -122q30 -71 30 -149t-30 -150q-29 -68 -82 -122q-53 -53 -122 -82q-71 -30 -150 -30q-77 0 -149 30q-68 29 -122 82q-53 53 -82 122q-30 71 -30 150q0 77 30 149q29 68 82 122q53 53 122 82q71 30 149 30zM511 831
q-91 0 -174 -35.5t-143 -95.5t-95.5 -143t-35.5 -174t35.5 -174t95.5 -143t143 -95.5t174 -35.5t174 35.5t143 95.5t95.5 143t35.5 174t-35.5 174t-95.5 143t-143 95.5t-174 35.5zM566 210q-29 -32 -61.5 -49.5t-56 -14.5t-28.5 27q-3 16 4.5 58.5t18.5 93.5t14 68q1 7 -4 7
q-6 0 -15 -7q-2 -2 -6 -4.5t-15 -8.5t-20 -9.5t-18.5 -3t-12.5 6.5q-2 3 5 9.5t13 9.5q5 3 13.5 9t32 21t43.5 25.5t42 16.5t33 1q14 -6 14.5 -28.5t-6.5 -44.5t-16.5 -46.5t-9.5 -27.5q-2 -6 -3.5 -15.5t-3 -26t0.5 -27.5t7.5 -19.5t19.5 -4.5t34 20l13 6q7 -1 -32 -42z
M535.5 520.5q-26.5 1.5 -44 21.5t-16 46.5t21 44t46 16t44 -21t16 -46t-21 -44.5t-46 -16.5z" />
    <glyph glyph-name="epack-1" unicode="&#xe6c8;" 
d="M513 829q-91 0 -174 -35.5t-143 -95.5t-95.5 -143t-35.5 -174t35.5 -174t95.5 -143t143 -95.5t174 -35.5t174 35.5t143 95.5t95.5 143t35.5 174t-35.5 174t-95.5 143t-143 95.5t-174 35.5zM902 396h-173q-2 96 -33 181q57 23 108 63q93 -104 98 -244zM497 -8
q-73 61 -117 152q56 18 119 20v-172h-2zM529 770q83 -69 129 -177q-63 -21 -130 -23v200h1zM577 766q120 -20 207 -105q-47 -36 -99 -58q-39 94 -108 163zM499 770v-200q-68 2 -131 23q46 108 129 177h2zM341 603q-51 22 -99 58q88 85 207 105q-68 -69 -108 -163zM357 567
q69 -24 142 -26v-145h-173q2 90 31 171zM499 366v-174q-69 -2 -131 -22q-39 93 -42 197h173v-1zM449 -4q-107 18 -189 89q44 30 92 49q38 -79 97 -138zM528 -8v172q62 -2 119 -20q-45 -92 -118 -152h-0.5h-0.5zM674 134q48 -19 92 -49q-82 -71 -189 -88q59 58 97 137z
M659 170q-62 20 -131 22v174h172q-2 -103 -41 -196zM528 396v145q72 2 141 26q29 -81 31 -171h-172zM222 640q51 -40 108 -64q-31 -85 -33 -181h-173q5 140 98 245zM124 366h173q3 -108 44 -206q-53 -20 -103 -56q-51 52 -81 119.5t-33 142.5zM788 104q-49 36 -102 56
q41 98 43 207h173q-2 -76 -32 -143.5t-82 -119.5z" />
    <glyph glyph-name="epack-7" unicode="&#xe6c9;" 
d="M807 802h-714v-834h833v714zM688 742v-238h-357v238h357zM271 28v273l24 24h429l23 -24v-274zM866 28h-59v297l-59 60h-477l-59 -60v-297h-60v714h119v-298h476v298h36l83 -83v-632v1zM569 682h59v-119h-59v119zM331 266h357v-60h-357v60zM331 147h357v-60h-357v60z" />
    <glyph glyph-name="epack-2" unicode="&#xe6ca;" 
d="M511 200.5q-75 -0.5 -128.5 53t-53.5 129t53.5 129t128.5 53.5t128.5 -53.5t53.5 -129t-53.5 -128.5t-128.5 -53.5zM511 516q-55 0 -94 -39t-39 -94t39 -94t94 -39t94 39t39 94t-39 94t-94 39zM588 -66h-153q-10 0 -17.5 7.5t-7.5 17.5v48q0 6 -2 13t-13.5 19.5
t-30.5 17.5v0q-3 1 -7.5 1t-15 -2.5t-19.5 -8.5l-35 -34q-7 -7 -17.5 -7t-17.5 7l-108 108q-7 7 -7.5 17.5t6.5 17.5l37 39q16 29 2 55q-15 27 -42 30h-50q-10 0 -17.5 7.5t-7.5 17.5v153q0 10 7.5 17.5t17.5 7.5h48q5 0 12 2t20 13.5t18 31.5q5 22 -13 44l-31 32
q-7 8 -7 18.5t7 17.5l108 108q7 7 17.5 7t17.5 -7l35 -34l0.5 -0.5t2.5 -1.5l4 -2l5 -2.5t6 -2.5t7 -1.5t8 -0.5q9 0 18 3l8 4t11.5 8t12.5 17t5 25v43q0 11 7.5 18t17.5 7h153q12 0 19.5 -8.5t5.5 -20.5q-1 -4 -1.5 -10t1 -21t5.5 -27t15 -23t28 -14q1 -1 3 -1q1 -1 5 -1
q19 0 40 18l27 28q7 7 17.5 7t18.5 -7l108 -108q7 -8 7 -18t-7 -18l-34 -34q-4 -7 -8 -15.5t-2.5 -25.5t14.5 -31h1q19 -17 39 -17h43q11 0 18 -7.5t7 -17.5v-153q0 -10 -7 -17.5t-18 -7.5h-49q-30 -1 -45 -35q-13 -27 8 -56l33 -32q7 -8 7 -18t-8 -18l-107 -108
q-7 -7 -17.5 -7t-17.5 7l-40 37l-1.5 1t-4 2t-6 2.5t-8 2t-8.5 0.5q-16 0 -30 -9q-26 -18 -26 -43v-47q0 -10 -7.5 -17.5t-17.5 -7.5zM460 -16h103v23q0 23 13 44.5t21.5 28.5t13.5 11q28 18 58 18q35 0 61 -21l24 -22l73 73l-16 16q-1 2 -2 3q-19 24 -22.5 52.5t0 39.5
t7.5 17q14 33 40.5 48t49.5 15h24v103h-18q-43 0 -75 32q-23 24 -28 53.5t2 50t18 35.5l2 2l18 18l-73 73l-11 -11q-47 -42 -93 -29q-47 9 -67.5 44.5t-21.5 78.5h-101v-20q0 -21 -8 -39.5t-17 -28.5t-21 -18t-16.5 -10t-8.5 -4q-16 -5 -34 -5q-40 0 -68 24l-17 18l-73 -73
l15 -16q1 -1 2 -1q18 -23 23 -51.5t-1 -38.5q-11 -44 -41 -64t-57 -20h-23v-103l28 -1q25 -2 46.5 -17t27.5 -23.5t9 -14.5q9 -16 11 -33t0.5 -29t-6 -23.5t-6.5 -16t-4 -6.5q-2 -3 -3 -4l-22 -23l74 -73l19 18q1 1 2 3q42 30 85 19q44 -11 64 -41t20 -57v-24z" />
    <glyph glyph-name="epack-3" unicode="&#xe6cb;" 
d="M813 45h-35v535h-36v35h-214v179q0 14 10.5 24.5t25.5 10.5t25.5 -10.5t10.5 -24.5v-107h213q15 0 25.5 -10.5t10.5 -25.5v-571q0 -14 -10.5 -24.5t-25.5 -10.5zM706 544v-571q0 -14 -10.5 -24.5t-24.5 -10.5h-285q-15 0 -25.5 10.5t-10.5 24.5v214q-15 0 -25.5 10.5
t-10.5 25.5v321q0 15 10.5 25.5t25.5 10.5h36v107q0 14 10 24.5t25 10.5t25.5 -10.5t10.5 -24.5v-107h214q15 0 25 -10.5t10 -25.5zM635 508h-250v-36h250v36zM635 404h-250v-36h250v36zM635 296h-250v-35h250v35zM278 580h-35v-214h35v-321h-35q-15 0 -25.5 10.5
t-10.5 24.5v214q-15 0 -25.5 10.5t-10.5 25.5v321q0 15 10.5 25.5t25.5 10.5h36v107q0 14 10.5 24.5t25 10.5t25 -10.5t10.5 -24.5v-179h-36v-35z" />
    <glyph glyph-name="epack-8" unicode="&#xe6cc;" 
d="M813 170q-9 0 -17 -4q-25 -12 -25 -39v-43h-596v596h596v-42q0 -28 25 -39q8 -4 17 -4q18 0 30.5 12.5t12.5 30.5v42q0 13 -4 25v1q-3 10 -8 19q-17 27 -48 37q-12 3 -25 3h-596q-14 0 -25 -3q-43 -13 -56 -56v-1q-4 -11 -4 -25v-595q0 -14 4 -26q13 -42 56 -56
q11 -4 25 -4h596q14 0 25 4q20 6 35 21.5t21 35.5q4 11 4 25v42q0 18 -12.5 30.5t-30.5 12.5zM942 360v0l0.5 0.5t0.5 1.5v0l1 1v1q1 0 1 0.5v0.5v1l0.5 0.5l0.5 0.5v1l1 1v1v0.5v1.5v0l0.5 0.5t0.5 1.5v0v2v0v0.5v1.5l0.5 0.5t0.5 1v0.5v4v0.5v0.5q0 1 -0.5 1.5t-0.5 1v0.5
v0v1.5v0.5v0q0 2 -1 2v1v0.5v0.5v1l-1 1v1q0 1 -1 1v1l-1 1v0v2h-1q0 2 -1 2v0q-3 5 -7 9l-132 133q-13 13 -31 13t-31 -13t-13 -31.5t13 -31.5l57 -57h-467q-18 0 -31 -13t-13 -31t13 -31t31 -13h467l-60 -59q-13 -13 -13 -31.5t13 -31.5t31.5 -13t31.5 13l134 134
q4 4 7 10z" />
    <glyph glyph-name="epack-10" unicode="&#xe6cd;" 
d="M443 197q-48 123 9.5 205.5t225.5 151.5l49 -107q6 -13 20 -13q4 0 8 2q8 3 11 11l146 272q3 8 -0.5 16t-11.5 11l-313 84q-13 6 -23 -4q-9 -10 -3 -22l51 -109q-71 -29 -123.5 -61t-92 -77t-52.5 -96t4.5 -118t71.5 -143zM809 -18q54 0 93 39.5t39 95.5v336h-66v-341
q0 -27 -19.5 -47t-46.5 -20h-596q-28 0 -47.5 20t-19.5 47v547q0 28 19.5 47.5t47.5 19.5h132v63h-132q-55 0 -94 -39t-39 -95v-538q0 -56 39 -95.5t94 -39.5h596z" />
    <glyph glyph-name="epack-9" unicode="&#xe6ce;" 
d="M97 660q60 32 111 35t97 -23t87.5 -76t84.5 -129l-100 -61q-12 -8 -11 -21q0 -5 2 -8q4 -8 13 -10l286 -115q8 -2 15.5 2.5t9.5 12.5l50 320q3 14 -7 22q-11 9 -23 1l-102 -62q-37 67 -74.5 115.5t-86.5 83t-101.5 41.5t-117 -18t-133.5 -86v-24zM809 -18q54 0 93 39.5
t39 95.5v538q0 56 -39 95t-93 39h-133v-63h133q27 0 46.5 -19.5t19.5 -47.5v-547q0 -28 -19.5 -47.5t-46.5 -19.5h-596q-28 0 -47 20t-19 47v341h-67v-336q0 -56 39 -95.5t94 -39.5h596z" />
    <glyph glyph-name="epack-11" unicode="&#xe6cf;" 
d="M64 575h897l-449 -449z" />
    <glyph glyph-name="epack-12" unicode="&#xe6d0;" 
d="M62 834v-900h900v900h-900zM906 -10h-788v788h788v-788zM512 665l-225 -225h169v-337h112v337h169z" />
    <glyph glyph-name="epack-15" unicode="&#xe6d1;" 
d="M784 338q-100 0 -170 -68t-70 -164.5t70 -165t169.5 -68.5t170 68.5t70.5 165t-70.5 164.5t-169.5 68v0zM605 105q0 72 52 123q53 51 126 51q61 0 110 -37l-260 -229q-28 41 -28 92v0zM784 -68q-61 0 -109 36l260 230q28 -43 28 -93q0 -72 -52.5 -122.5t-126.5 -50.5z
M586 298q6 -1 9 -1q6 -4 15 -4q11 0 20 8q11 9 11 23q0 5 -2 11q-7 20 -29 20l1 1h-2t-2 1v0q-59 21 -125 26q135 22 193 82t58 148q-1 118 -87.5 200.5t-207.5 82.5t-207.5 -82.5t-88.5 -200.5q0 -81 43.5 -148.5t115.5 -104.5q-131 -45 -213 -153.5t-87 -242.5v0v-1v-1
q0 -13 9.5 -22.5t22.5 -9.5q17 0 28 9.5t11 22.5l-0.5 1l-0.5 1h1q6 150 114 251t263 101q88 0 136 -18h1v0zM437.5 390q-95.5 0 -162.5 65.5t-67 158t67 157.5t162.5 65t163 -65t67.5 -157.5t-67.5 -158t-163 -65.5z" />
    <glyph glyph-name="epack-16" unicode="&#xe6d2;" 
d="M588 15h-472v765h765v-381q0 -11 8 -19t19.5 -8t19.5 8t8 19v435h-874v-874h526q12 0 20 8t8 19.5t-8 19.5t-20 8zM954 -19l-99 99q35 48 35 108q0 76 -53 129t-128.5 53t-129 -53t-53.5 -128.5t53.5 -129t128.5 -53.5q61 0 108 36l99 -100q8 -8 19.5 -8t19.5 8t8 19.5
t-8 19.5zM708 61q-52 0 -89.5 37.5t-37.5 90t37.5 90t90 37.5t90 -37.5t37.5 -90t-37.5 -90t-90.5 -37.5zM448 157h-240q-12 0 -20 -8t-8 -19.5t8 -19.5t20 -8h240q12 0 20 8t8 19.5t-8 19.5t-20 8zM783 641h-573q-12 0 -19.5 8t-7.5 19.5t7.5 19t19.5 7.5h573q11 0 19 -7.5
t8 -19t-8 -19.5t-19 -8zM782 465h-572q-12 0 -20 8.5t-8 19.5t8 19t20 8h572q11 0 19 -8t8 -19t-8 -19.5t-19 -8.5zM449 289h-241q-11 0 -19.5 8t-8.5 19t8 19.5t20 8.5h241q11 0 19 -8.5t8 -19.5t-8 -19t-19 -8z" />
    <glyph glyph-name="epack-14" unicode="&#xe6d3;" 
d="M795 231q-41 48 -104 82q51 44 79 104.5t28 127.5q0 125 -88 214t-211 89q-124 0 -212 -89t-88 -214v0q0 -66 27.5 -126t77.5 -104q-70 -39 -117.5 -97t-68.5 -115.5t-25 -119.5v0l1 -8v0q1 -13 10.5 -22.5t22.5 -9.5t23 10t10 24v5q15 214 203 293l5 -3q61 -30 130 -30
q64 0 138 34q62 -25 118 -83q10 -11 25.5 -6.5t20.5 17t-5 27.5zM259 545q0 100 70.5 171t169.5 71t169 -71t70 -171t-70.5 -171t-169 -71t-169 71t-70.5 171zM919.5 197.5q-11.5 11.5 -28 11.5t-28.5 -12l-177 -184l-100 95q-12 11 -28 11.5t-27.5 -11t-11.5 -27t11 -27.5
l127 -122q14 -13 32 -12q15 2 25 12v0l205 212q11 11 11.5 26.5t-11 27z" />
    <glyph glyph-name="epack-17" unicode="&#xe6d4;" 
d="M926 345h-155q-16 0 -27.5 11.5t-11.5 27.5t11.5 27.5t27.5 11.5h155q16 0 27.5 -11.5t11.5 -27.5t-11.5 -27.5t-27.5 -11.5zM723 540q-12 -12 -28 -12t-27.5 11.5t-11.5 27.5t12 28l109 109q12 12 28 12t27.5 -11.5t11.5 -27.5t-12 -28zM512 -69q-16 0 -27.5 11.5
t-11.5 27.5v155q0 16 11.5 27.5t27.5 11.5t27.5 -11.5t11.5 -27.5v-155q0 -16 -11.5 -27.5t-27.5 -11.5zM512 604q-16 0 -27.5 11.5t-11.5 27.5v155q0 16 11.5 27.5t27.5 11.5t27.5 -11.5t11.5 -27.5v-155q0 -16 -11.5 -27.5t-27.5 -11.5zM301 540l-109 109q-12 12 -12 28
t11.5 27.5t27.5 11.5t28 -12l109 -109q12 -12 12 -28t-11.5 -27.5t-27.5 -11.5t-28 12zM292 384q0 -16 -11.5 -27.5t-27.5 -11.5h-155q-16 0 -27.5 11.5t-11.5 27.5t11.5 27.5t27.5 11.5h155q16 0 27.5 -11.5t11.5 -27.5zM301 228q12 12 28 12t27.5 -11.5t11.5 -27.5
t-12 -28l-109 -109q-12 -12 -28 -12t-27.5 11.5t-11.5 27.5t12 28zM723 228l109 -109q12 -12 12 -28t-11.5 -27.5t-27.5 -11.5t-28 12l-109 109q-12 12 -12 28t11.5 27.5t27.5 11.5t28 -12z" />
    <glyph glyph-name="epack-13" unicode="&#xe6d5;" 
d="M659 528h151l-88 -52q-12 -7 -16 -21t4 -26q10 -17 30 -17q10 0 18 5l196 117q17 10 17 30q0 19 -17 30l-196 117q-12 7 -26.5 3.5t-21.5 -16.5q-7 -12 -3.5 -26t15.5 -21l88 -52h-151q-91 0 -155.5 -64.5t-64.5 -155.5q0 -62 -43.5 -106t-105.5 -44h-199
q-14 0 -24.5 -10t-10.5 -24q0 -15 10.5 -25t24.5 -10h199q91 0 155 64t64 155q0 62 44 105.5t106 43.5zM91 528h199q54 0 97 -35q9 -8 22 -8q16 0 27 12q9 11 8 25.5t-12 23.5q-62 52 -142 52h-199q-14 0 -24.5 -10.5t-10.5 -24.5t10.5 -24.5t24.5 -10.5zM954 224l-196 118
q-12 7 -26.5 3.5t-21.5 -16.5q-7 -12 -3.5 -26t15.5 -21l88 -53h-151q-58 0 -99 38q-11 10 -25.5 9t-24.5 -12q-9 -11 -8 -25q1 -15 12 -24q61 -55 145 -55h151l-88 -53q-12 -7 -16 -21t4 -27q10 -17 30 -17q10 0 18 6l196 117q17 10 17 30q1 19 -17 29z" />
    <glyph glyph-name="epack-18" unicode="&#xe6d6;" 
d="M642 403l70 74q29 -10 58 -10q71 0 121 50t50 121q0 39 -17 74l-76 -76q-17 -17 -40.5 -17t-40 17t-16.5 40.5t16 40.5l77 76q-36 17 -74 17q-72 0 -122 -50t-50 -122q0 -29 10 -57l-85 -80q-15 4 -30 4q-36 0 -65 -20l-190 196l30 30q5 5 5 13v0q0 11 -9 17v0l-115 67v0
q-4 2 -9 2q-8 0 -14 -5l-38 -39q-5 -5 -5 -13q0 -5 2 -10v0l67 -114v0q6 -10 16 -10q8 0 14 6l29 29l190 -196q-23 -30 -23 -68q0 -11 3 -23l-270 -253q-28 -28 -28 -67.5t27.5 -67.5t67.5 -28t67 28l241 257l250 -251q34 -34 81.5 -34t81 33.5t33.5 81t-34 81.5zM173 669
l-47 81l17 17l80 -47zM754 771l-20 -20q-31 -31 -31 -74.5t30.5 -74t74 -30.5t74.5 30l20 20q-6 -50 -43.5 -83.5t-88.5 -33.5q-26 0 -49 9q-19 8 -34 21l21 -15v0q-37 20 -57 57q-2 3 -2 7q0 -2 -2 2q-1 1 -2 4q-9 23 -9 48q0 51 34 89t84 44zM626 544q31 -46 81 -65
l-93 -48l-40 40q-6 6 -13 11zM219 6q-17 -16 -41 -16t-40.5 16.5t-16.5 40.5t17 40l258 242q7 -11 16 -20l46 -46zM817.5 -10q-31.5 0 -54.5 22l-324 324q-15 15 -20 36l1 -4q-1 3 -2 11q1 -4 2 -10l1 -3v1q-1 0 -2 4t-3 8l1 5v4v-6v8v7q0 2 1 5q3 26 23 44t46 20q4 1 6 1
q4 0 10 -1h2q5 -1 8 -2h1q10 -3 19 -9q8 -5 14 -11l324 -324q23 -23 23 -54.5t-22.5 -53.5t-54 -22zM831 79l-191 191q-6 6 -13 6h-1q-7 0 -13 -5.5t-6 -13.5t6 -14l191 -191q5 -5 13 -5t13.5 5.5t5.5 13.5t-5 13zM178 66q-8 0 -13.5 -5.5t-5.5 -13.5t5.5 -13.5t13.5 -5.5
t13.5 5.5t5.5 13.5t-5.5 13.5t-13.5 5.5z" />
    <glyph glyph-name="epack-19" unicode="&#xe6d7;" 
d="M370 -66q-128 0 -218 90t-90 218t90 218t218 90q74 0 141 -35l283 283q29 29 70 29t69.5 -28.5t28.5 -69.5t-29 -69l-67 -68l67 -67q29 -29 29 -69.5t-29 -69t-69.5 -28.5t-69.5 28l-67 68l-80 -80q31 -64 31 -132q0 -127 -90 -217.5t-218 -90.5v0zM370 494
q-104 0 -178 -73.5t-74 -178t74 -178.5t178 -74t178 74t74 178q0 64 -34 123l-10 19l149 149l107 -107q13 -12 30 -12t29.5 12t12.5 29.5t-13 29.5l-107 107l107 107q13 13 13 30t-13 29v0q-12 13 -29 13t-30 -13l-314 -314l-19 12q-61 38 -131 38zM370 75q-71 0 -119 48
q-49 49 -49 119t49 119t119 49t119 -49t49 -119t-49 -119q-48 -48 -119 -48v0zM370 354q-46 0 -79 -32.5t-33 -79t33 -79.5q31 -32 78.5 -32t79.5 32q33 33 33 79t-33 79t-79 33z" />
    <glyph glyph-name="epack-20" unicode="&#xe6d8;" 
d="M512 832l-375 -230v-439l375 -227l375 227v439zM477 43l-276 172v318l276 -176v-314v0zM236 598l276 142l268 -153l-268 -161zM816 215l-276 -172v314l276 176v-318z" />
    <glyph glyph-name="epack-21" unicode="&#xe6d9;" horiz-adv-x="1149" 
d="M843 -116q-31 0 -44 7l-31 6l-12 44q-7 0 -13 6l-44 -19l-25 19q-4 4 -11.5 10t-12 11t-7.5 10l-44 44l19 44q0 6 -6 12l-44 13l-6 31v87l6 31l44 13q0 6 6 12l-19 38l19 25q27 35 63 62l25 19l43 -19q7 0 13 6l12 44l31 6q44 9 88 0l31 -6l6 -44q7 0 13 -6l44 19l25 -19
q35 -27 62 -62l19 -25l-19 -44q0 -6 6 -12l44 -13l6 -31q0 -10 3 -24t3 -20q0 -31 -6 -43l-6 -32l-44 -12q0 -6 -6 -13l19 -43l-19 -25q-4 -5 -10 -12t-11 -12t-10 -8l-31 -31l-25 -19l-44 19q-6 0 -13 -6l-12 -44l-31 -6q-19 12 -44 12zM818 -53h50l12 37l13 7q6 3 15.5 6
t15.5 6l13 6l37 -18l38 37l-13 38l6 12q3 6 6.5 15.5t6.5 15.5l6 13l37 12v50l-37 13l-6 12q-3 6 -6.5 15.5t-6.5 15.5l-6 25l19 38l-38 37l-37 -18l-13 6q-5 2 -16 5.5t-15 6.5l-12 7l-13 37h-50l-12 -37l-13 -7q-8 -2 -22.5 -5.5t-20.5 -6.5l-13 -6l-37 12l-38 -37l19 -38
l-6 -12q-4 -7 -7 -16t-6 -16l-6 -12l-38 -13v-50l38 -12l6 -12q3 -7 6 -16t7 -16l6 -12l-19 -38l38 -37l37 19l13 -7q6 -3 15 -6t16 -6l18 -6zM843 47q-47 0 -79.5 32.5t-32.5 79.5t32.5 80t79.5 33t79.5 -33t32.5 -80t-32.5 -79.5t-79.5 -32.5zM843 215q-22 0 -36 -15
t-14 -35q0 -22 15 -35.5t35 -13.5q22 0 36 15t14 34t-15.5 34.5t-34.5 15.5zM674 284q-86 54 -168 63q90 23 148 97t58 171q0 117 -81 199t-194 82t-197 -82.5t-84 -198.5q0 -97 58 -171t148 -97q-155 -24 -258.5 -146t-103.5 -285q0 -14 8.5 -23t22.5 -9t22.5 9t8.5 23
q0 104 50.5 192t137 138.5t187.5 50.5q109 0 194 -57zM212 615q0 93 65.5 156t159.5 63q93 0 156 -64.5t63 -154.5q0 -89 -65 -154t-154 -65t-157 65.5t-68 153.5z" />
  </font>
</defs>
</svg>
